<mxfile host="app.diagrams.net" modified="2024-05-07T07:05:57.906Z" agent="Mozilla/5.0 (Windows NT 10.0; Win64; x64) AppleWebKit/537.36 (KHTML, like Gecko) Chrome/124.0.0.0 Safari/537.36 Edg/124.0.0.0" etag="JOg2R-2Nxztbh3RbasJh" version="24.3.1" type="github">
  <diagram name="第 1 页" id="bOLdVZWsunlNL_9O6Flo">
    <mxGraphModel dx="1106" dy="571" grid="1" gridSize="10" guides="1" tooltips="1" connect="1" arrows="1" fold="1" page="1" pageScale="1" pageWidth="827" pageHeight="1169" math="0" shadow="0">
      <root>
        <mxCell id="0" />
        <mxCell id="1" parent="0" />
        <mxCell id="IMO5OrLKpYprAf_lidSt-3" style="edgeStyle=orthogonalEdgeStyle;rounded=0;orthogonalLoop=1;jettySize=auto;html=1;exitX=0.5;exitY=1;exitDx=0;exitDy=0;" edge="1" parent="1" source="IMO5OrLKpYprAf_lidSt-1" target="IMO5OrLKpYprAf_lidSt-2">
          <mxGeometry relative="1" as="geometry" />
        </mxCell>
        <mxCell id="IMO5OrLKpYprAf_lidSt-1" value="" style="rounded=1;whiteSpace=wrap;html=1;" vertex="1" parent="1">
          <mxGeometry x="330" y="50" width="120" height="60" as="geometry" />
        </mxCell>
        <mxCell id="IMO5OrLKpYprAf_lidSt-2" value="记录url" style="rounded=1;whiteSpace=wrap;html=1;" vertex="1" parent="1">
          <mxGeometry x="210" y="220" width="120" height="60" as="geometry" />
        </mxCell>
        <mxCell id="IMO5OrLKpYprAf_lidSt-4" value="" style="rounded=1;whiteSpace=wrap;html=1;" vertex="1" parent="1">
          <mxGeometry x="430" y="220" width="120" height="60" as="geometry" />
        </mxCell>
      </root>
    </mxGraphModel>
  </diagram>
</mxfile>
